<svg width="300" height="300" viewBox="0 0 300 300" xmlns="http://www.w3.org/2000/svg">
  <g>
    <rect x="0" y="0" width="10" height="10" fill="#444"/><rect x="10" y="0" width="10" height="10" fill="#AAA"/><rect x="20" y="0" width="10" height="10" fill="#222"/><rect x="30" y="0" width="10" height="10" fill="#DDD"/><rect x="40" y="0" width="10" height="10" fill="#777"/><rect x="50" y="0" width="10" height="10" fill="#333"/><rect x="60" y="0" width="10" height="10" fill="#888"/><rect x="70" y="0" width="10" height="10" fill="#555"/><rect x="80" y="0" width="10" height="10" fill="#CCC"/><rect x="90" y="0" width="10" height="10" fill="#111"/>
    <rect x="100" y="0" width="10" height="10" fill="#666"/><rect x="110" y="0" width="10" height="10" fill="#999"/><rect x="120" y="0" width="10" height="10" fill="#444"/><rect x="130" y="0" width="10" height="10" fill="#BBB"/><rect x="140" y="0" width="10" height="10" fill="#222"/><rect x="150" y="0" width="10" height="10" fill="#FFF"/><rect x="160" y="0" width="10" height="10" fill="#888"/><rect x="170" y="0" width="10" height="10" fill="#333"/><rect x="180" y="0" width="10" height="10" fill="#DDD"/><rect x="190" y="0" width="10" height="10" fill="#555"/>
    <rect x="200" y="0" width="10" height="10" fill="#AAA"/><rect x="210" y="0" width="10" height="10" fill="#777"/><rect x="220" y="0" width="10" height="10" fill="#222"/><rect x="230" y="0" width="10" height="10" fill="#CCC"/><rect x="240" y="0" width="10" height="10" fill="#444"/><rect x="250" y="0" width="10" height="10" fill="#999"/><rect x="260" y="0" width="10" height="10" fill="#111"/><rect x="270" y="0" width="10" height="10" fill="#666"/><rect x="280" y="0" width="10" height="10" fill="#BBB"/><rect x="290" y="0" width="10" height="10" fill="#333"/>
    </g>
</svg>
